<svg width="40" height="73" viewBox="0 0 40 73" fill="none" xmlns="http://www.w3.org/2000/svg">
<g clip-path="url(#clip0)">
<path d="M18.4324 68.6473L17.8783 67.5897C18.6682 67.1726 19.4543 66.7203 20.2118 66.2235L20.8552 67.2241C20.0636 67.7364 19.2564 68.2147 18.4324 68.6473ZM23.1387 65.6137L22.4061 64.6702C23.1102 64.1197 23.8105 63.534 24.473 62.9285L25.2818 63.8044C24.5996 64.4477 23.8769 65.0477 23.1387 65.6137ZM27.279 61.8564L26.4057 61.0467C27.016 60.3993 27.6094 59.7062 28.1651 58.9933L29.1028 59.7367C28.5131 60.4651 27.9091 61.1712 27.279 61.8564ZM30.744 57.4702L29.7431 56.8049C30.2478 56.0618 30.7134 55.2873 31.1541 54.5036L32.1934 55.0816C31.7564 55.9006 31.258 56.7024 30.744 57.4702ZM33.4783 52.6037L32.3876 52.1024C32.7657 51.2898 33.1046 50.4456 33.4082 49.6053L34.5359 50.0075C34.2244 50.8844 33.8644 51.7545 33.4783 52.6037ZM35.3845 47.3505L34.2301 47.0342C34.471 46.1649 34.6635 45.2889 34.8311 44.4037L36.0095 44.6104C35.8351 45.5439 35.6346 46.4564 35.3845 47.3505ZM36.3833 41.8615L35.1914 41.7513C35.2177 41.4396 35.2427 41.1161 35.2677 40.7926C35.3018 40.2187 35.3227 39.6343 35.3214 39.0641L36.5138 39.0674C36.5071 39.674 36.4992 40.269 36.4559 40.8676C36.4439 41.2016 36.4189 41.5251 36.3833 41.8615ZM36.4061 36.2749L35.2132 36.3787C35.1894 36.1555 35.1773 35.931 35.1535 35.7078C35.0819 35.0382 34.9868 34.3712 34.8799 33.7054L36.0627 33.5077C36.1839 34.1957 36.2816 34.8863 36.3556 35.5793C36.3559 35.805 36.381 36.04 36.4061 36.2749ZM34.3002 31.0703C34.0764 30.2031 33.8173 29.3397 33.524 28.4918L34.6502 28.0982C34.959 28.9801 35.2219 29.8787 35.46 30.7681L34.3002 31.0703ZM32.5407 25.9831C32.1792 25.1662 31.7824 24.3532 31.3514 23.5557L32.3998 22.9922C32.8451 23.8119 33.2562 24.6472 33.6214 25.4992L32.5407 25.9831ZM29.9824 21.2307C29.4963 20.4747 28.9761 19.7343 28.4231 19.0211L29.3714 18.3019C29.9388 19.0373 30.4732 19.8 30.9867 20.5887L29.9824 21.2307ZM26.7008 16.9596C26.0926 16.288 25.4633 15.6423 24.8142 15.0345L25.6389 14.1622C26.3141 14.791 26.9707 15.4694 27.6037 16.1502L26.7008 16.9596ZM22.7554 13.2822C22.0525 12.7276 21.3166 12.2003 20.561 11.7108L21.2292 10.7126C22.0096 11.2114 22.7728 11.7714 23.5019 12.347L22.7554 13.2822ZM18.2439 10.3307C17.4723 9.91414 16.6547 9.51438 15.8148 9.12889L16.3067 8.04266C17.1714 8.43738 18.0138 8.84636 18.8115 9.28388L18.2439 10.3307ZM13.3077 8.08988C12.4636 7.77613 11.6089 7.47539 10.745 7.1994L11.1127 6.06703C12.0015 6.35225 12.8797 6.65047 13.7382 6.98646L13.3077 8.08988ZM8.13462 6.42094C7.25088 6.18271 6.36964 5.96798 5.47662 5.7545L5.75808 4.59571C6.66289 4.80792 7.55717 5.03314 8.44091 5.27137L8.13462 6.42094ZM2.81311 5.14806C1.91207 4.97108 1.02156 4.7811 0.120518 4.60413L0.353581 3.43862C1.25462 3.6156 2.15566 3.79257 3.05921 3.99304L2.81311 5.14806Z" fill="#27CDC2"/>
<path d="M23.981 70.3712L24.2612 69.2007L18.5252 67.8414L20.3099 62.2328L19.1741 61.8671L16.9951 68.694L23.981 70.3712Z" fill="#27CDC2"/>
</g>
<defs>
<clipPath id="clip0">
<rect width="32.7147" height="69.0644" fill="white" transform="translate(0 3.47641) rotate(-6.1)"/>
</clipPath>
</defs>
</svg>
