<?xml version="1.0" encoding="utf-8"?>
<!-- Generator: Adobe Illustrator 23.1.0, SVG Export Plug-In . SVG Version: 6.00 Build 0)  -->
<svg version="1.1" id="Слой_1" xmlns="http://www.w3.org/2000/svg" xmlns:xlink="http://www.w3.org/1999/xlink" x="0px" y="0px"
	 viewBox="0 0 26.6 31.2" style="enable-background:new 0 0 26.6 31.2;" xml:space="preserve">
<style type="text/css">
	.st0{fill:#FFFFFF;}
</style>
<g>
	<path class="st0" d="M26.4,6.6L20,0.2c0-0.1-0.1-0.1-0.2-0.1c-0.1,0-0.1,0-0.2,0H4.2C3.6,0,3.1,0.2,2.7,0.6C2.3,1,2.1,1.5,2.1,2.1
		v10.3c0,0.1,0.1,0.3,0.2,0.4c0.1,0.1,0.2,0.2,0.4,0.2s0.3-0.1,0.4-0.2c0.1-0.1,0.2-0.2,0.2-0.4V2.1c0-0.3,0.1-0.5,0.3-0.7
		c0.2-0.2,0.4-0.3,0.7-0.3h14.9V7c0,0.1,0.1,0.3,0.2,0.4c0.1,0.1,0.2,0.2,0.4,0.2h5.8v21.6c0,0.3-0.1,0.5-0.3,0.7
		c-0.2,0.2-0.4,0.3-0.7,0.3H4.2c-0.3,0-0.5-0.1-0.7-0.3c-0.2-0.2-0.3-0.4-0.3-0.7v-2.8c0-0.1-0.1-0.3-0.2-0.4s-0.2-0.2-0.4-0.2
		S2.4,25.9,2.3,26s-0.2,0.2-0.2,0.4v2.8c0,0.5,0.2,1.1,0.6,1.5c0.4,0.4,0.9,0.6,1.4,0.6h20.3c0.5,0,1.1-0.2,1.4-0.6
		c0.4-0.4,0.6-0.9,0.6-1.5V7c0-0.1,0-0.1,0-0.2C26.5,6.7,26.5,6.7,26.4,6.6z M20.2,1.8l4.6,4.6h-4.6V1.8z"/>
	<path class="st0" d="M10.8,17.4H9.9v3.8h1.1c0.6,0,1.1-0.1,1.6-0.5c0.2-0.2,0.3-0.4,0.4-0.7c0.1-0.2,0.1-0.5,0.1-0.8
		C13,18.1,12.2,17.4,10.8,17.4z"/>
	<path class="st0" d="M5.4,17.4h-1v2.2h1.1c0.2,0,0.4,0,0.6,0c0.2-0.1,0.4-0.1,0.5-0.3c0.1-0.1,0.2-0.3,0.3-0.4
		c0.1-0.2,0.1-0.3,0.1-0.5c0-0.2,0-0.3-0.1-0.5c-0.1-0.1-0.2-0.3-0.3-0.4C6.2,17.5,5.8,17.4,5.4,17.4z"/>
	<path class="st0" d="M22.3,23v-7.3c0-0.2,0-0.5-0.1-0.7c-0.1-0.2-0.2-0.4-0.4-0.6c-0.2-0.2-0.4-0.3-0.6-0.4C21,14,20.8,14,20.6,14
		H1.7c-0.2,0-0.5,0-0.7,0.1c-0.2,0.1-0.4,0.2-0.6,0.4c-0.2,0.2-0.3,0.4-0.4,0.6C0,15.3,0,15.5,0,15.7V23c0,0.2,0,0.5,0.1,0.7
		c0.1,0.2,0.2,0.4,0.4,0.6c0.2,0.2,0.4,0.3,0.6,0.4c0.2,0.1,0.4,0.1,0.7,0.1h18.9c0.2,0,0.5,0,0.7-0.1c0.2-0.1,0.4-0.2,0.6-0.4
		c0.2-0.2,0.3-0.4,0.4-0.6C22.3,23.4,22.3,23.2,22.3,23z M7.2,20c-0.5,0.4-1.2,0.5-1.8,0.5h-1v1.6H3.5v-5.6h1.9
		C6,16.5,6.7,16.7,7.2,17c0.2,0.2,0.4,0.4,0.5,0.7c0.1,0.3,0.1,0.5,0.1,0.8c0,0.3,0,0.6-0.1,0.8C7.6,19.6,7.4,19.9,7.2,20z
		 M13.1,21.4c-0.7,0.6-1.5,0.8-2.4,0.8H8.9v-5.6h1.9c0.8-0.1,1.6,0.2,2.3,0.7c0.3,0.3,0.5,0.6,0.6,0.9c0.1,0.4,0.2,0.7,0.2,1.1
		c0,0.4,0,0.8-0.2,1.1C13.6,20.8,13.4,21.1,13.1,21.4z M18.8,17.4h-2.8V19h2.5v0.9h-2.5v2.3h-0.9v-5.7h3.7L18.8,17.4z"/>
</g>
</svg>
