<?xml version="1.0" encoding="utf-8"?><svg xmlns="http://www.w3.org/2000/svg" xmlns:xlink="http://www.w3.org/1999/xlink"><symbol fill="none" viewBox="0 0 40 73" id="arrow" xmlns="http://www.w3.org/2000/svg"><g clip-path="url(#aa)" fill="#27CDC2"><path d="M18.432 68.647l-.554-1.057c.79-.417 1.576-.87 2.334-1.367l.643 1.001a30.93 30.93 0 01-2.423 1.423zm4.707-3.033l-.733-.944a35.375 35.375 0 002.067-1.742l.809.876a27.564 27.564 0 01-2.143 1.81zm4.14-3.758l-.873-.81c.61-.647 1.203-1.34 1.76-2.053l.937.744a44.338 44.338 0 01-1.824 2.12zm3.465-4.386l-1-.665a32.18 32.18 0 001.41-2.301l1.04.578c-.438.819-.936 1.62-1.45 2.388zm2.734-4.866l-1.09-.502a30.55 30.55 0 001.02-2.497l1.128.403a32.95 32.95 0 01-1.058 2.596zm1.907-5.254l-1.155-.316c.241-.87.434-1.745.601-2.63l1.178.206a31.903 31.903 0 01-.624 2.74zm.998-5.489l-1.192-.11c.027-.311.052-.635.077-.958a27.82 27.82 0 00.053-1.729l1.193.003a29.36 29.36 0 01-.058 1.8c-.012.335-.037.658-.073.995zm.023-5.586l-1.193.104c-.024-.223-.036-.448-.06-.671a38.37 38.37 0 00-.273-2.003l1.183-.197c.12.688.219 1.378.293 2.071 0 .226.025.461.05.696zM34.3 31.07a33.53 33.53 0 00-.776-2.578l1.126-.394c.309.882.572 1.78.81 2.67l-1.16.302zm-1.76-5.087a34.342 34.342 0 00-1.189-2.427l1.049-.564c.445.82.856 1.655 1.221 2.507l-1.08.484zm-2.558-4.752a30.743 30.743 0 00-1.559-2.21l.948-.72a34.957 34.957 0 011.616 2.288l-1.005.642zm-3.281-4.271a32.799 32.799 0 00-1.887-1.926l.825-.872a39.133 39.133 0 011.965 1.988l-.903.81zm-3.946-3.678a29.058 29.058 0 00-2.194-1.571l.668-.998c.78.498 1.544 1.058 2.273 1.634l-.747.935zm-4.511-2.951a42.117 42.117 0 00-2.43-1.202l.493-1.086a38.26 38.26 0 012.505 1.24l-.568 1.048zM13.308 8.09a58.192 58.192 0 00-2.563-.89l.368-1.133c.889.285 1.767.583 2.625.92l-.43 1.103zM8.135 6.42a95.308 95.308 0 00-2.658-.665l.281-1.16c.905.213 1.8.438 2.683.676l-.306 1.15zM2.813 5.149c-.9-.177-1.791-.367-2.692-.544L.354 3.44c.9.177 1.802.354 2.705.554l-.246 1.155z"/><path d="M23.981 70.371l.28-1.17-5.736-1.36 1.785-5.608-1.136-.366-2.179 6.827 6.986 1.677z"/></g><defs><clipPath id="aa"><path fill="#fff" transform="rotate(-6.1 32.622 1.738)" d="M0 0h32.715v69.064H0z"/></clipPath></defs></symbol><symbol fill="none" viewBox="0 0 19 12" id="bottom" xmlns="http://www.w3.org/2000/svg"><path d="M0 2.653L9.5 12 19 2.653 16.304 0 9.5 6.697 2.696 0 0 2.653z" fill="#103EB4"/></symbol><symbol id="pdf" viewBox="0 0 26.6 31.2" xmlns="http://www.w3.org/2000/svg"><style>.cst0{fill:#fff}</style><path class="cst0" d="M26.4 6.6L20 .2c0-.1-.1-.1-.2-.1H4.2C3.6 0 3.1.2 2.7.6c-.4.4-.6.9-.6 1.5v10.3c0 .1.1.3.2.4.1.1.2.2.4.2s.3-.1.4-.2c.1-.1.2-.2.2-.4V2.1c0-.3.1-.5.3-.7.2-.2.4-.3.7-.3h14.9V7c0 .1.1.3.2.4.1.1.2.2.4.2h5.8v21.6c0 .3-.1.5-.3.7-.2.2-.4.3-.7.3H4.2c-.3 0-.5-.1-.7-.3-.2-.2-.3-.4-.3-.7v-2.8c0-.1-.1-.3-.2-.4s-.2-.2-.4-.2-.2.1-.3.2-.2.2-.2.4v2.8c0 .5.2 1.1.6 1.5.4.4.9.6 1.4.6h20.3c.5 0 1.1-.2 1.4-.6.4-.4.6-.9.6-1.5V6.8c.1-.1.1-.1 0-.2zm-6.2-4.8l4.6 4.6h-4.6V1.8z"/><path class="cst0" d="M10.8 17.4h-.9v3.8H11c.6 0 1.1-.1 1.6-.5.2-.2.3-.4.4-.7.1-.2.1-.5.1-.8-.1-1.1-.9-1.8-2.3-1.8zm-5.4 0h-1v2.2h1.7c.2-.1.4-.1.5-.3.1-.1.2-.3.3-.4.1-.2.1-.3.1-.5s0-.3-.1-.5c-.1-.1-.2-.3-.3-.4-.4 0-.8-.1-1.2-.1z"/><path class="cst0" d="M22.3 23v-7.3c0-.2 0-.5-.1-.7-.1-.2-.2-.4-.4-.6-.2-.2-.4-.3-.6-.4H1.7c-.2 0-.5 0-.7.1-.2.1-.4.2-.6.4-.2.2-.3.4-.4.6V23c0 .2 0 .5.1.7.1.2.2.4.4.6.2.2.4.3.6.4.2.1.4.1.7.1h18.9c.2 0 .5 0 .7-.1.2-.1.4-.2.6-.4.2-.2.3-.4.4-.6-.1-.3-.1-.5-.1-.7zM7.2 20c-.5.4-1.2.5-1.8.5h-1v1.6h-.9v-5.6h1.9c.6 0 1.3.2 1.8.5.2.2.4.4.5.7.1.3.1.5.1.8 0 .3 0 .6-.1.8-.1.3-.3.6-.5.7zm5.9 1.4c-.7.6-1.5.8-2.4.8H8.9v-5.6h1.9c.8-.1 1.6.2 2.3.7.3.3.5.6.6.9.1.4.2.7.2 1.1 0 .4 0 .8-.2 1.1-.1.4-.3.7-.6 1zm5.7-4H16V19h2.5v.9H16v2.3h-.9v-5.7h3.7v.9z"/></symbol></svg>